<svg width="240" height="220" viewBox="0 0 240 220" fill="none" xmlns="http://www.w3.org/2000/svg">
<rect width="240" height="220" fill="#1E1E1E"/>
<g clip-path="url(#clip0_0_1)">
<path d="M144 221C112.835 221 81.8804 221 50.9999 221C23.3857 221 1 198.614 1 171C1 131 1 91 1 51C1 23.3858 23.3858 1.00001 51 1.00001C97.6667 1.00001 144.333 1.00001 191 1C218.614 1 241 23.3858 241 51C241 91 241 131 241 171C241 198.614 218.614 221 191 221C175.412 221 159.764 221 144 221ZM205.006 131.5C205.037 108.172 204.902 84.8409 205.228 61.5167C205.298 56.5278 203.741 53.5784 199.55 51.1129C186.218 43.2705 173.113 35.0416 159.763 27.2323C157.339 25.8141 154.174 25.0641 151.342 25.0365C131.848 24.8469 112.351 24.8799 92.8558 24.9982C90.6457 25.0116 88.1378 25.497 86.283 26.6166C72.1881 35.125 58.2705 43.9268 44.1788 52.4403C40.8825 54.4317 39.8812 56.869 39.8958 60.6C40.0136 90.7598 40.0658 120.921 39.8131 151.08C39.7714 156.06 41.3864 159.004 45.5554 161.508C70.2135 176.318 94.7801 191.282 119.307 206.31C121.856 207.872 123.733 207.52 126.053 206.064C134.922 200.5 143.872 195.064 152.802 189.594C168.824 179.781 184.816 169.917 200.911 160.223C204.021 158.35 205.197 156.064 205.077 152.494C204.853 145.836 205.01 139.165 205.006 131.5Z" fill="#FDFDFD"/>
<path d="M205.007 132C205.01 139.165 204.853 145.836 205.077 152.494C205.197 156.064 204.021 158.35 200.911 160.223C184.816 169.917 168.824 179.781 152.802 189.594C143.872 195.064 134.922 200.5 126.053 206.064C123.733 207.52 121.856 207.872 119.307 206.31C94.7801 191.282 70.2135 176.318 45.5554 161.508C41.3864 159.004 39.7714 156.06 39.8131 151.08C40.0658 120.921 40.0136 90.7598 39.8958 60.6C39.8812 56.869 40.8825 54.4317 44.1788 52.4403C58.2705 43.9268 72.1881 35.125 86.283 26.6166C88.1378 25.497 90.6457 25.0116 92.8558 24.9982C112.351 24.8799 131.848 24.8469 151.342 25.0366C154.174 25.0641 157.339 25.8141 159.763 27.2323C173.113 35.0416 186.218 43.2705 199.55 51.1129C203.741 53.5784 205.298 56.5278 205.228 61.5167C204.902 84.8409 205.037 108.172 205.007 132ZM68.2541 63.0282C86.4059 74.0104 104.558 84.9926 122.479 95.8355C138.941 85.6092 155.11 75.5644 172.183 64.9582C172.183 70.2635 172.475 74.5421 172.045 78.7467C171.863 80.5155 170.564 82.7771 169.079 83.7108C154.866 92.6458 140.442 101.244 126.241 110.196C123.416 111.976 121.478 112.04 118.657 110.32C98.8082 98.2098 78.8545 86.2712 58.9228 74.2969C57.4938 73.4384 55.9746 72.73 54.1333 71.76C54.1333 96.9677 54.0402 121.285 54.2974 145.598C54.3197 147.708 56.1418 150.619 57.9911 151.766C78.6074 164.55 99.3668 177.106 120.198 189.539C121.515 190.325 124.152 190.255 125.492 189.448C146.144 177.014 166.663 164.359 187.273 151.854C189.801 150.32 190.994 148.637 190.98 145.518C190.858 119.203 190.972 92.8868 190.779 66.5728C190.766 64.7309 189.326 62.1863 187.767 61.1838C177.008 54.2628 166.084 47.5941 155.098 41.0362C153.372 40.0062 151.07 39.528 149.027 39.5089C131.708 39.3463 114.386 39.3039 97.0658 39.3625C94.9966 39.3695 92.6259 39.6938 90.9143 40.7294C82.8297 45.6209 74.9258 50.811 66.2511 55.9898C64.7927 56.9034 63.3343 57.817 61.3471 59.0618C63.8888 60.4466 65.8447 61.5123 68.2541 63.0282Z" fill="#050505"/>
<path d="M66.9574 55.8946C74.9258 50.811 82.8297 45.6209 90.9143 40.7294C92.6259 39.6938 94.9966 39.3695 97.0658 39.3625C114.386 39.3039 131.708 39.3463 149.027 39.5089C151.07 39.528 153.372 40.0062 155.098 41.0363C166.084 47.5941 177.008 54.2628 187.767 61.1838C189.326 62.1863 190.766 64.7309 190.779 66.5728C190.972 92.8868 190.858 119.203 190.98 145.518C190.994 148.637 189.801 150.32 187.273 151.854C166.663 164.359 146.144 177.014 125.492 189.448C124.152 190.255 121.515 190.325 120.198 189.539C99.3668 177.106 78.6074 164.55 57.9911 151.766C56.1418 150.619 54.3197 147.708 54.2974 145.598C54.0402 121.285 54.1333 96.9677 54.1333 71.7601C55.9745 72.73 57.4938 73.4384 58.9228 74.2969C78.8545 86.2712 98.8082 98.2098 118.657 110.32C121.478 112.04 123.416 111.976 126.241 110.196C140.442 101.244 154.866 92.6459 169.079 83.7108C170.564 82.7771 171.863 80.5155 172.045 78.7467C172.475 74.5421 172.183 70.2635 172.183 64.9582C155.11 75.5644 138.941 85.6092 122.479 95.8355C104.558 84.9926 86.4059 74.0104 68.0848 62.3709C67.5962 59.7739 67.2768 57.8342 66.9574 55.8946ZM74.4637 109.454C73.3318 115.326 75.6075 118.96 81.0975 121.559C86.624 124.176 91.5592 128.013 96.9567 130.941C100.022 132.604 101.053 134.681 100.9 138.073C100.636 143.887 100.731 149.722 100.861 155.545C100.891 156.887 101.256 158.753 102.173 159.451C106.061 162.413 110.215 165.026 114.771 168.103C114.771 155.656 114.435 144.035 114.915 132.449C115.151 126.733 113.42 123.475 108.354 120.656C97.1128 114.4 86.281 107.409 74.5138 100.25C74.5138 103.67 74.5138 106.108 74.4637 109.454ZM161.271 105.759C152.382 111.298 143.578 116.982 134.556 122.296C131.532 124.078 130.619 126.189 130.683 129.505C130.859 138.495 130.746 147.492 130.748 156.486C130.748 160.046 130.748 163.606 130.748 168.039C133.432 166.17 135.024 164.674 136.907 163.82C143.747 160.714 146.193 155.477 144.723 148.322C142.369 136.857 146.942 129.297 157.699 125.414C169.099 121.298 172.884 113.326 170.265 101.846C170.204 101.58 169.897 101.371 169.568 100.967C167.016 102.413 164.441 103.871 161.271 105.759Z" fill="#FAFAFA"/>
<path d="M66.6043 55.9422C67.2768 57.8342 67.5962 59.7739 67.8581 62.1457C65.8447 61.5123 63.8888 60.4466 61.3471 59.0618C63.3343 57.817 64.7927 56.9034 66.6043 55.9422Z" fill="#EDEDED"/>
<path d="M74.4888 109C74.5138 106.108 74.5138 103.67 74.5138 100.25C86.281 107.409 97.1128 114.4 108.354 120.656C113.42 123.475 115.151 126.733 114.915 132.449C114.435 144.035 114.771 155.656 114.771 168.103C110.215 165.026 106.061 162.413 102.173 159.451C101.256 158.753 100.891 156.887 100.861 155.545C100.731 149.722 100.636 143.887 100.9 138.073C101.053 134.681 100.022 132.604 96.9567 130.941C91.5592 128.013 86.624 124.176 81.0975 121.559C75.6075 118.96 73.3318 115.326 74.4888 109Z" fill="#090909"/>
<g filter="url(#filter0_d_0_1)">
<path d="M161.569 105.545C164.441 103.871 167.016 102.413 169.568 100.967C169.897 101.37 170.204 101.58 170.265 101.846C172.884 113.326 169.099 121.298 157.699 125.414C146.942 129.297 142.369 136.857 144.723 148.322C146.193 155.477 143.747 160.714 136.907 163.82C135.024 164.674 133.432 166.17 130.748 168.039C130.748 163.606 130.748 160.046 130.748 156.486C130.746 147.492 130.859 138.495 130.683 129.505C130.619 126.189 131.532 124.078 134.556 122.296C143.578 116.982 152.382 111.298 161.569 105.545Z" fill="#090909"/>
</g>
</g>
<defs>
<filter id="filter0_d_0_1" x="126.68" y="100.967" width="48.3782" height="75.0719" filterUnits="userSpaceOnUse" color-interpolation-filters="sRGB">
<feFlood flood-opacity="0" result="BackgroundImageFix"/>
<feColorMatrix in="SourceAlpha" type="matrix" values="0 0 0 0 0 0 0 0 0 0 0 0 0 0 0 0 0 0 127 0" result="hardAlpha"/>
<feOffset dy="4"/>
<feGaussianBlur stdDeviation="2"/>
<feComposite in2="hardAlpha" operator="out"/>
<feColorMatrix type="matrix" values="0 0 0 0 0 0 0 0 0 0 0 0 0 0 0 0 0 0 0.25 0"/>
<feBlend mode="normal" in2="BackgroundImageFix" result="effect1_dropShadow_0_1"/>
<feBlend mode="normal" in="SourceGraphic" in2="effect1_dropShadow_0_1" result="shape"/>
</filter>
<clipPath id="clip0_0_1">
<rect width="240" height="220" fill="white"/>
</clipPath>
</defs>
</svg>
